<svg width="67" height="26" viewBox="0 0 67 26" fill="none" xmlns="http://www.w3.org/2000/svg">
<path d="M27.8179 4.43789V12.939H30.5533V8.4656C30.5533 7.40915 31.0721 6.74887 31.8424 6.74887C32.6599 6.74887 33.1001 7.2771 33.1001 8.26752V12.939H35.8355V8.4656C35.8355 7.40915 36.3858 6.74887 37.1247 6.74887C37.9422 6.74887 38.3823 7.2771 38.3823 8.26752V12.939H41.1178V7.7558C41.1178 5.56037 39.9544 4.23981 37.9893 4.23981C36.6216 4.23981 35.8827 4.88358 35.3325 5.6264C34.7822 4.71851 33.9019 4.23981 32.7071 4.23981C31.7481 4.23981 30.9778 4.58646 30.4275 5.44482V4.43789H27.8179Z" fill="#FAFAFA"/>
<path d="M50.2967 9.37349C50.3753 9.10938 50.4539 8.59766 50.4539 8.15197C50.4539 5.82448 48.8819 4.23981 46.5709 4.23981C44.1813 4.23981 42.3577 6.18764 42.3577 8.6967C42.3577 11.2058 44.1341 13.1371 46.901 13.1371C48.2687 13.1371 49.3378 12.7739 50.4068 11.767L49.0233 9.95123C48.6303 10.3474 47.9858 10.7436 47.1054 10.7436C46.1778 10.7436 45.2975 10.3309 45.1717 9.37349H50.2967ZM46.508 6.51778C47.2154 6.51778 47.7657 6.97997 47.8128 7.70628V7.72279H45.1245C45.1717 6.94696 45.8005 6.51778 46.508 6.51778Z" fill="#FAFAFA"/>
<path d="M59.9419 12.939V1.13649H57.2065V5.3953C56.6562 4.52043 55.7759 4.23981 55.0055 4.23981C52.7417 4.23981 51.2011 6.17113 51.2011 8.6967C51.2011 11.3378 52.9146 13.1371 54.9269 13.1371C55.6187 13.1371 56.7977 12.8895 57.4266 11.7835V12.939H59.9419ZM57.2694 8.66369C57.2694 9.8687 56.5462 10.628 55.5872 10.628C54.6911 10.628 53.9522 9.85219 53.9522 8.66369C53.9522 7.47518 54.6911 6.74887 55.5872 6.74887C56.5462 6.74887 57.2694 7.47518 57.2694 8.66369Z" fill="#FAFAFA"/>
<path d="M61.9158 12.939H64.6512V4.43789H61.9158V12.939ZM61.8057 2.06088C61.8057 2.91925 62.4345 3.54651 63.2678 3.54651C64.101 3.54651 64.7455 2.91925 64.7455 2.06088C64.7455 1.20252 64.101 0.575253 63.2678 0.575253C62.4345 0.575253 61.8057 1.20252 61.8057 2.06088Z" fill="#FAFAFA"/>
<path d="M29.9246 23.0967H32.3457L35.5999 14.5956H32.8644L31.1351 19.8448L29.4058 14.5956H26.6704L29.9246 23.0967Z" fill="#FAFAFA"/>
<path d="M43.68 19.5312C43.7586 19.2671 43.8372 18.7554 43.8372 18.3097C43.8372 15.9822 42.2651 14.3975 39.9541 14.3975C37.5645 14.3975 35.7409 16.3453 35.7409 18.8544C35.7409 21.3635 37.5174 23.2948 40.2842 23.2948C41.652 23.2948 42.721 22.9316 43.79 21.9247L42.4066 20.1089C42.0136 20.5051 41.369 20.9013 40.4886 20.9013C39.5611 20.9013 38.6807 20.4886 38.5549 19.5312H43.68ZM39.8912 16.6755C40.5987 16.6755 41.1489 17.1377 41.1961 17.864V17.8805H38.5078C38.5549 17.1047 39.1838 16.6755 39.8912 16.6755Z" fill="#FAFAFA"/>
<path d="M50.684 14.4635C50.5583 14.414 50.3853 14.3975 50.181 14.3975C49.1119 14.3975 48.3259 15.0083 47.9014 16.0482V14.5956H45.1817V23.0967H47.9171V19.9769C47.9171 18.1941 48.6875 17.0882 50.0709 17.0882C50.3539 17.0882 50.5583 17.1212 50.684 17.1872V14.4635Z" fill="#FAFAFA"/>
<path d="M54.4588 23.2948C56.4711 23.2948 57.8231 22.1228 57.8231 20.6042C57.8231 18.9204 56.5811 18.4747 55.3077 17.9465C54.1601 17.4348 53.6727 17.3523 53.6727 17.0386C53.6727 16.725 54.0343 16.5434 54.4588 16.5434C55.2134 16.5434 55.6379 16.9231 55.9051 17.4018L57.603 16.1142C57.0999 15.1073 55.9208 14.3975 54.5374 14.3975C52.7138 14.3975 51.1888 15.3219 51.1888 17.0221C51.1888 18.3922 52.0849 19.069 53.6727 19.6633C54.7889 20.0759 55.3392 20.2245 55.3392 20.6702C55.3392 20.9838 55.0405 21.1489 54.4902 21.1489C53.6727 21.1489 53.0439 20.6207 52.6666 19.9439L50.9216 21.347C51.5976 22.6015 52.9496 23.2948 54.4588 23.2948Z" fill="#FAFAFA"/>
<path d="M66.5091 19.5312C66.5877 19.2671 66.6664 18.7554 66.6664 18.3097C66.6664 15.9822 65.0943 14.3975 62.7833 14.3975C60.3937 14.3975 58.5701 16.3453 58.5701 18.8544C58.5701 21.3635 60.3465 23.2948 63.1134 23.2948C64.4811 23.2948 65.5502 22.9316 66.6192 21.9247L65.2357 20.1089C64.8427 20.5051 64.1982 20.9013 63.3178 20.9013C62.3903 20.9013 61.5099 20.4886 61.3841 19.5312H66.5091ZM62.7204 16.6755C63.4278 16.6755 63.9781 17.1377 64.0252 17.864V17.8805H61.3369C61.3841 17.1047 62.0129 16.6755 62.7204 16.6755Z" fill="#FAFAFA"/>
<path d="M20.3183 6.72159C20.3915 7.96157 19.7568 8.9997 19.1892 10.025C18.881 10.5793 18.8596 11.1368 19.1831 11.6879C19.4883 12.207 19.888 12.6556 20.2389 13.1394C21.6548 15.0779 22.9182 17.2246 23.5559 19.5892C23.7238 20.2108 23.8214 20.8484 23.9099 21.486C23.974 21.9506 24.0594 22.553 23.6841 22.9087C23.3759 23.2002 22.9121 23.1362 22.5428 23.0368C22.1614 22.9343 21.7342 22.7901 21.3924 22.5818C20.8645 22.2614 20.9194 21.6655 20.8279 21.108C20.7241 20.4864 20.538 19.8808 20.3122 19.2944C19.8514 18.1025 19.2167 16.9939 18.5179 15.9398C18.1547 15.3919 17.7794 14.8568 17.4132 14.3089C17.1508 13.918 16.8853 13.3156 16.4154 13.1586C15.8966 12.9856 15.4328 13.5431 15.0636 13.8379C14.676 14.1455 14.3373 14.5171 14.4349 15.065C14.5112 15.4976 14.792 15.8725 15.0453 16.2089C15.3474 16.6094 15.6464 16.9939 15.8875 17.4393C16.4337 18.4486 16.7633 19.6117 16.69 20.7811C16.5649 22.7965 15.2405 24.6229 13.3883 25.2124C11.4872 25.818 9.25347 25.1035 8.09084 23.3861C6.92821 21.6687 7.0106 19.3073 7.93827 17.5034C8.19765 16.9971 8.53026 16.5582 8.87813 16.1192C9.19244 15.7219 9.57388 15.2188 9.47928 14.6645C9.39079 14.1551 8.94832 13.7898 8.55162 13.5335C8.11525 13.2483 7.59955 13.0913 7.14487 13.4245C6.72987 13.7321 6.47049 14.2672 6.1989 14.703C5.86323 15.2413 5.51536 15.7731 5.17359 16.3082C4.49921 17.3656 3.87059 18.4742 3.4861 19.6853C3.30301 20.2621 3.20231 20.8452 3.10161 21.4412C3.01617 21.9378 2.86664 22.4345 2.39061 22.6491C2.00306 22.8254 1.51482 22.9087 1.09982 22.9952C0.6665 23.0881 0.2637 23.0016 0.089763 22.5274C-0.102483 22.0019 0.0592479 21.3579 0.156896 20.826C0.275906 20.1724 0.422378 19.5187 0.611573 18.8811C0.962497 17.686 1.49346 16.5646 2.10376 15.4976C2.73848 14.3922 3.42507 13.2804 4.23372 12.3031C4.55413 11.9154 5.17054 11.3803 5.12782 10.8164C5.08815 10.2781 4.57244 9.81033 4.31001 9.37458C3.72107 8.40374 3.36404 7.24385 3.56239 6.08718C3.74548 5.01381 4.37409 4.05899 5.23157 3.45341C6.9099 2.2679 9.23516 2.54025 10.4619 4.28327C11.1241 5.22528 11.356 6.40438 11.1668 7.55145C11.0691 8.15061 10.8586 8.68249 10.5595 9.19835C10.3062 9.63411 9.90039 10.1339 10.056 10.6786C10.1933 11.1657 10.7579 11.6046 11.1546 11.861C11.655 12.1814 12.1768 12.1814 12.6895 11.8802C13.1167 11.6303 13.5958 11.2394 13.8369 10.7844C14.084 10.3166 13.8643 9.9417 13.5775 9.56362C12.2531 7.827 12.3599 5.03303 14.0596 3.61682C15.4847 2.43131 17.6207 2.36082 19.0092 3.64886C19.4059 4.01733 19.7385 4.46911 19.9643 4.97215C20.2084 5.51364 20.3122 6.03271 20.3183 6.70236C20.2908 6.70557 20.3457 6.69916 20.3183 6.70236V6.72159ZM11.5818 18.5479C11.3102 18.5479 11.0905 18.7818 11.0905 19.0638V19.8263H9.87293V20.9285C9.87293 21.2137 10.0957 21.4444 10.3642 21.4444H11.0905V22.7228H12.1402C12.4118 22.7228 12.6315 22.4889 12.6315 22.207V21.4444H13.8491V20.3422C13.8491 20.057 13.6263 19.8263 13.3578 19.8263H12.6315V18.5479H11.5818ZM7.02891 4.90166C6.75733 4.90166 6.53762 5.13556 6.53762 5.41752V6.18009H5.32006V7.2823C5.32006 7.56747 5.54283 7.79816 5.81136 7.79816H6.53762V9.0766H7.58734C7.85893 9.0766 8.07864 8.8427 8.07864 8.56074V7.79816H9.29619V6.69595C9.29619 6.41079 9.07343 6.18009 8.8049 6.18009H8.07864V4.90166H7.02891ZM16.2781 4.90166C16.0065 4.90166 15.7868 5.13556 15.7868 5.41752V6.18009H14.5692V7.2823C14.5692 7.56747 14.792 7.79816 15.0605 7.79816H15.7868V9.0766H16.8365C17.1081 9.0766 17.3278 8.8427 17.3278 8.56074V7.79816H18.5453V6.69595C18.5453 6.41079 18.3226 6.18009 18.054 6.18009H17.3278V4.90166H16.2781Z" fill="#551EB7"/>
</svg>
